<svg xmlns="http://www.w3.org/2000/svg" xmlns:xlink="http://www.w3.org/1999/xlink" width="58" height="274" viewBox="0 0 58 274"><defs><path id="gz6ra" d="M1862.5 8018c38.94 0 70.5 67.18 70.5 132.05 0 64.88-31.56 148.95-70.5 148.95s-70.5-83.3-70.5-148.18c0-64.88 31.56-132.82 70.5-132.82z"/><path id="gz6rc" d="M1876.44 8294.7l12.74 3.63c.77.22 1.57-.23 1.76-1.02.2-.78-.27-1.6-1.05-1.82l-9.34-2.66-1.49-2.58 2.37-9.42c.2-.78-.28-1.6-1.05-1.82a1.41 1.41 0 0 0-1.77 1.02l-3.22 12.85c-.2.78.27 1.6 1.05 1.82z"/><clipPath id="gz6rb"><use fill="#fff" xlink:href="#gz6ra"/></clipPath></defs><g><g transform="translate(-1875 -8025)"><use fill="#fff" fill-opacity="0" stroke="#cfaf87" stroke-miterlimit="50" stroke-width="4" clip-path="url(&quot;#gz6rb&quot;)" xlink:href="#gz6ra"/></g><g transform="translate(-1875 -8025)"><use fill="#d4b48b" xlink:href="#gz6rc"/></g></g></svg>