<svg xmlns="http://www.w3.org/2000/svg" xmlns:xlink="http://www.w3.org/1999/xlink" width="82" height="84" viewBox="0 0 82 84"><defs><path id="u0d9a" d="M1884.2 7958.64l-1.87 1.05a5.46 5.46 0 0 0-2.71 5.76l.4 2.12a5.46 5.46 0 0 1-5.05 6.46l-2.14.12a5.42 5.42 0 0 0-4.94 4l-.57 2.09a5.45 5.45 0 0 1-7.34 3.61l-1.98-.82a5.44 5.44 0 0 0-6.2 1.46l-1.4 1.62a5.42 5.42 0 0 1-8.16.07l-1.43-1.6a5.42 5.42 0 0 0-6.2-1.38l-1.98.84a5.43 5.43 0 0 1-7.39-3.49l-.6-2.07a5.47 5.47 0 0 0-5-3.94l-2.15-.08a5.46 5.46 0 0 1-5.14-6.37l.36-2.12a5.46 5.46 0 0 0-2.8-5.73l-1.89-1.02a5.5 5.5 0 0 1-1.88-7.98l1.23-1.76a5.5 5.5 0 0 0-.05-6.38l-1.27-1.74a5.47 5.47 0 0 1 1.75-8l1.87-1.06a5.46 5.46 0 0 0 2.71-5.76l-.4-2.12a5.46 5.46 0 0 1 5.05-6.46l2.14-.12a5.42 5.42 0 0 0 4.94-4l.57-2.09a5.45 5.45 0 0 1 7.34-3.61l1.98.82c2.17.9 4.65.31 6.2-1.46l1.4-1.62a5.42 5.42 0 0 1 8.16-.07l1.43 1.6a5.42 5.42 0 0 0 6.2 1.38l1.98-.84a5.43 5.43 0 0 1 7.39 3.5l.6 2.06a5.47 5.47 0 0 0 5 3.94l2.15.08a5.46 5.46 0 0 1 5.14 6.37l-.36 2.12a5.46 5.46 0 0 0 2.8 5.73l1.89 1.02a5.49 5.49 0 0 1 1.88 7.99l-1.23 1.75a5.5 5.5 0 0 0 .05 6.39l1.27 1.74a5.47 5.47 0 0 1-1.75 8z"/></defs><g><g transform="translate(-1805 -7904)"><use fill="#d8b78d" xlink:href="#u0d9a"/></g></g></svg>