<svg xmlns="http://www.w3.org/2000/svg" xmlns:xlink="http://www.w3.org/1999/xlink" width="18" height="24" viewBox="0 0 18 24"><defs><path id="2o62a" d="M1661 8171.29v4.17c0 .3-.24.54-.53.54h-16.94a.54.54 0 0 1-.53-.54v-4.17c0-2 1.57-3.64 3.53-3.71.02 0 2.74.08 3.15-2.89a6.77 6.77 0 0 1-2.56-4.7.55.55 0 0 1-.12-.2 6.24 6.24 0 0 1 .02-4.75 4.18 4.18 0 0 1 2.6-2.4c.24-.07.49-.12.74-.14.66-.34 1.36-.5 2.09-.5 2.76 0 5.01 2.46 5.01 5.49a5.9 5.9 0 0 1-.44 2.26.53.53 0 0 1-.13.19 7.55 7.55 0 0 1-1.34 3.53c-.36.5-.78.9-1.23 1.23.41 2.96 3.13 2.88 3.15 2.88a3.69 3.69 0 0 1 3.53 3.7zm-13.26-12.65c.58-.62 1-1.37 1.2-2.2.08-.27.32-.47.6-.49.28-.01.54.15.65.42a.98.98 0 0 0 .92.63h3.63c.64 0 1.23.27 1.65.7v-.21c0-2.43-1.76-4.41-3.94-4.41a3.6 3.6 0 0 0-1.7.43.55.55 0 0 1-.22.06c-.21.01-.42.05-.61.1-1.75.51-2.71 2.73-2.18 4.97zm4.26 5.74c2.14 0 3.89-2.48 3.89-5.53v-.01c-.2-.45-.64-.76-1.15-.76h-3.63a2.02 2.02 0 0 1-1.4-.55c-.34.84-.88 1.6-1.55 2.2.15 1.27.6 2.43 1.3 3.29a3.32 3.32 0 0 0 2.54 1.36zm-2.87 3.4l2.8 4.04c.01.02.04.04.07.04.03 0 .06-.02.08-.04l2.8-4.04a4.23 4.23 0 0 1-1.56-2.55 3.84 3.84 0 0 1-2.64 0 4.24 4.24 0 0 1-1.55 2.54zm10.8 7.14v-3.64a2.61 2.61 0 0 0-2.58-2.62c-.02 0-.78 0-1.56-.34l-2.84 4.12a1.15 1.15 0 0 1-1.9 0l-2.84-4.12c-.68.32-1.54.34-1.56.34a2.61 2.61 0 0 0-2.59 2.62v3.64z"/></defs><g><g transform="translate(-1643 -8152)"><use fill="#7f2418" xlink:href="#2o62a"/></g></g></svg>