<svg xmlns="http://www.w3.org/2000/svg" xmlns:xlink="http://www.w3.org/1999/xlink" width="18" height="20" viewBox="0 0 18 20"><defs><path id="w18ca" d="M1662.45 8246.12c.39.47.55 1 .48 1.5-.06.52-.35.99-.83 1.37l-.62.47c-.3.22-.6.43-.85.66l-.02.02c-.74.6-1.61.85-2.6.73-.09 0-.18-.02-.27-.04-1.46-.26-2.71-.95-3.64-1.52a20.04 20.04 0 0 1-6.08-5.9 17.72 17.72 0 0 1-2.6-5.7 7.11 7.11 0 0 1-.16-3.14c.16-.74.56-1.35 1.17-1.82l1.64-1.25.01-.01c.48-.35 1.01-.5 1.54-.44.52.06 1 .34 1.36.79a20.66 20.66 0 0 1 1.05 1.3l1.03 1.28c.8.98.65 2.1-.36 2.87l-.4.31c-.36.28-.73.56-1.12.83.19.6.48 1.2.93 1.91.94 1.45 1.97 2.6 3.14 3.54.11.08.25.18.4.26l.3.21 1.52-1.15a2.13 2.13 0 0 1 1.55-.46c.53.06 1 .35 1.37.82zm-.92.7l-2.07-2.58a.89.89 0 0 0-.59-.38 1 1 0 0 0-.69.23l-1.64 1.25c-.08.06-.34.25-.7.2a.95.95 0 0 1-.4-.15l-.05-.03a5.69 5.69 0 0 0-.4-.28c-.16-.1-.33-.2-.49-.34a15.5 15.5 0 0 1-3.38-3.8v-.01c-.56-.88-.9-1.6-1.12-2.36v-.03c-.05-.25-.07-.6.34-.92l.02-.02c.42-.28.8-.57 1.2-.88.15-.1.28-.21.42-.32.51-.38.56-.79.17-1.28l-1.03-1.28-.36-.45c-.23-.29-.44-.57-.68-.83v-.02a.92.92 0 0 0-.6-.36c-.22-.03-.45.05-.69.21l-1.64 1.25c-.4.3-.64.68-.75 1.16a5.8 5.8 0 0 0 .15 2.66 18.94 18.94 0 0 0 8.18 10.9 9.5 9.5 0 0 0 3.42 1.4c.67.08 1.21-.07 1.7-.47.3-.27.62-.51.93-.73l.6-.45c-.01 0-.01 0 0 0 .48-.38.54-.82.15-1.3z"/></defs><g><g transform="translate(-1645 -8231)"><use fill="#7f2418" xlink:href="#w18ca"/></g></g></svg>